<?xml version="1.0" encoding="UTF-8"?>
<svg version="1.1" xmlns="http://www.w3.org/2000/svg" width="1071" height="915">
<path d="M0 0 C353.43 0 706.86 0 1071 0 C1071 301.95 1071 603.9 1071 915 C717.57 915 364.14 915 0 915 C0 613.05 0 311.1 0 0 Z " fill="#FEFEFE" transform="translate(0,0)"/>
<path d="M0 0 C1.75942691 1.50991754 3.5097336 3.03053822 5.25 4.5625 C6.08015625 5.25988281 6.9103125 5.95726562 7.765625 6.67578125 C33.38914705 28.71362176 48.22452865 60.79095585 50.84228516 94.22875977 C51.93801552 110.87673742 49.74066469 126.55181039 45.25 142.5625 C46.20487305 142.31508057 47.15974609 142.06766113 48.14355469 141.81274414 C109.54150858 126.07821136 168.43330235 127.32405202 230.69921875 136.015625 C233.46696787 136.40115577 236.23475263 136.7864272 239.00259399 137.17129517 C240.87492707 137.43196785 242.74714032 137.69350269 244.61923218 137.9559021 C258.20222574 139.85362276 271.78153202 141.36663259 285.4375 142.625 C298.18351834 143.80544306 310.6278548 145.40156611 323.13671875 148.21875 C325.17405155 148.66860768 327.21191913 149.11604372 329.25 149.5625 C329.94584859 149.72020213 330.64169718 149.87790426 331.35863209 150.04038525 C345.13831297 153.11926828 358.16138991 154.09750955 372.25 153.91796875 C374.27066192 153.90792883 376.29133445 153.89985716 378.31201172 153.89363098 C383.55764329 153.87298258 388.80279594 153.82907613 394.04821777 153.77886963 C402.49616551 153.7026967 410.94440649 153.66550954 419.39257812 153.62337685 C422.32690919 153.60575751 425.26106253 153.57963939 428.1953125 153.55180359 C429.98697846 153.53858975 431.77864509 153.52546725 433.5703125 153.51245117 C434.37961212 153.50257172 435.18891174 153.49269226 436.0227356 153.48251343 C439.89734647 153.45977052 443.48529032 153.60691381 447.25 154.5625 C447.3125 156.8125 447.3125 156.8125 446.25 159.5625 C444.390625 160.50390625 444.390625 160.50390625 442.0625 161.375 C431.74210131 165.55850546 427.53360898 177.92835158 423.25 187.5625 C421.27365877 192.53269493 419.62047231 197.61326792 417.97573853 202.7008667 C416.72968156 206.54105486 415.43411331 210.36440411 414.13671875 214.1875 C413.88597092 214.92680756 413.63522308 215.66611511 413.37687683 216.42782593 C404.93764875 241.12787812 391.71070046 262.69843824 367.7421875 274.83203125 C363.973157 276.59215605 360.4095218 278.02578751 356.25 278.5625 C364.72692958 283.91635026 374.35861259 281.46175911 383.625 279.5 C384.71530518 279.27304443 385.80561035 279.04608887 386.92895508 278.81225586 C390.37393543 278.08202312 393.81266682 277.32788018 397.25 276.5625 C398.80775146 276.21687012 398.80775146 276.21687012 400.39697266 275.86425781 C434.98558576 268.02978124 469.14368281 257.05676255 502.1953125 244.26171875 C521.7528182 236.73148029 541.54873687 229.38842144 562.6875 229.375 C563.69876953 229.36275391 564.71003906 229.35050781 565.75195312 229.33789062 C571.28303286 229.32706659 576.08887174 229.47579046 581.25 231.5625 C584.951942 237.17512175 584.7856384 242.99971832 584.25 249.5625 C583.41763161 253.25154872 582.21205948 256.75528556 580.9375 260.3125 C569.98685841 292.69558159 569.56173179 328.1890526 581.19921875 360.36328125 C585.24843528 372.69156505 583.74808183 387.33943692 578.5 399.125 C574.59404494 405.87965912 569.31969789 408.88537931 561.98388672 410.95825195 C557.59481817 411.92833096 553.35571956 412.03629449 548.875 412 C548.03839844 412.01998047 547.20179688 412.03996094 546.33984375 412.06054688 C529.4118929 412.04819071 512.36726464 406.47970953 496.1875 402 C495.24643402 401.74160339 494.30536804 401.48320679 493.33578491 401.21697998 C480.17404876 397.59911185 467.08173223 393.78909662 454.0625 389.6875 C453.37413055 389.47092743 452.68576111 389.25435486 451.97653198 389.03121948 C445.18294583 386.88434904 438.43775225 384.64517855 431.74024963 382.21411133 C424.11845923 379.45624586 416.61393283 377.17388736 408.625 375.6875 C407.53034424 375.48261963 406.43568848 375.27773926 405.30786133 375.06665039 C389.46241884 372.32664986 371.86862774 370.78270192 357.20703125 378.66015625 C354.95092932 379.70039486 353.09452796 379.93090667 350.625 380.125 C347.31333997 380.38134544 347.31333997 380.38134544 344.25 381.5625 C344.92596844 384.58639684 344.92596844 384.58639684 346.9375 385.73828125 C349.81957536 386.76550743 352.194399 386.79201451 355.25 386.75 C356.28125 386.74355469 357.3125 386.73710937 358.375 386.73046875 C360.85882257 386.58535412 362.86350317 386.18423264 365.25 385.5625 C381.64398916 383.98764435 392.92529435 394.37629997 405 404.125 C411.42664854 409.48369077 417.78524894 414.93885454 423.5625 421 C436.21509214 433.74086604 452.25507198 441.83767681 468.25 449.5625 C467.25 451.5625 467.25 451.5625 465.44447327 452.25616455 C464.65463547 452.4645697 463.86479767 452.67297485 463.05102539 452.88769531 C462.15313797 453.12863922 461.25525055 453.36958313 460.33015442 453.61782837 C459.34593002 453.87285126 458.36170563 454.12787415 457.34765625 454.390625 C456.33092331 454.66039154 455.31419037 454.93015808 454.26664734 455.20809937 C450.95080124 456.08485612 447.63186387 456.94916529 444.3125 457.8125 C442.05039848 458.40652029 439.78835415 459.00075845 437.52636719 459.59521484 C423.384301 463.29710751 409.22765851 466.86318416 394.94091797 469.96655273 C391.80512416 470.66102494 388.6808633 471.40021444 385.5546875 472.13671875 C373.65808206 474.88155061 362.07182343 475.7056397 349.87890625 475.6640625 C348.70448471 475.6616304 347.53006317 475.6591983 346.3200531 475.6566925 C334.61980861 475.60468493 322.932494 475.30126219 311.24047852 474.87280273 C307.78886281 474.74915323 304.3369662 474.6430051 300.88476562 474.53710938 C277.81410236 473.75471395 256.60958356 472.16706037 236.89453125 459.234375 C232.86997179 456.69004494 229.8649713 456.40287528 225.1875 456.375 C224.12402344 456.36082031 223.06054688 456.34664062 221.96484375 456.33203125 C219.00528671 456.51564204 216.49122538 456.88574526 213.61889648 457.50854492 C208.63654658 458.52715174 203.6940614 459.18621816 198.6328125 459.65625 C197.73789093 459.74024048 196.84296936 459.82423096 195.92092896 459.9107666 C183.96158924 460.94811878 171.97219543 460.97332839 159.97607422 461.09423828 C156.9396147 461.12780338 153.90348126 461.17283419 150.8671875 461.21875 C149.47993973 461.22666565 149.47993973 461.22666565 148.06466675 461.23474121 C147.21172028 461.24815552 146.3587738 461.26156982 145.47998047 461.27539062 C144.73279755 461.28268188 143.98561462 461.28997314 143.21578979 461.29748535 C140.92953436 461.45940502 140.92953436 461.45940502 138.25 463.5625 C139.05824219 464.29855469 139.86648438 465.03460937 140.69921875 465.79296875 C141.77870221 466.77858409 142.85812612 467.76426465 143.9375 468.75 C144.46794922 469.23275391 144.99839844 469.71550781 145.54492188 470.21289062 C158.11592349 481.70417431 165.67386704 492.75098834 169.25 509.5625 C169.60627954 511.16677585 169.96308878 512.77093412 170.3203125 514.375 C170.69403361 516.0830439 171.06642835 517.79137855 171.4375 519.5 C171.61676025 520.31718506 171.79602051 521.13437012 171.98071289 521.97631836 C172.81037494 525.90008888 173.48651234 529.52547899 173.25 533.5625 C156.92384675 536.37105504 140.06902901 535.32778671 124.25 530.5625 C123.0434375 530.20027344 121.836875 529.83804688 120.59375 529.46484375 C105.12277119 524.32527309 91.19865584 516.39500735 78.25 506.5625 C78.78711723 510.42974404 79.84342098 512.52811775 82.25 515.5625 C82.25 516.2225 82.25 516.8825 82.25 517.5625 C79.98828125 517.84765625 79.98828125 517.84765625 77.25 517.5625 C75.29296875 515.62109375 75.29296875 515.62109375 73.4375 513 C70.95996512 509.69507941 68.62326294 506.81836571 65.4375 504.1875 C57.76088223 497.79535568 51.23423773 489.84886071 44.7421875 482.28515625 C43.79218115 481.18842117 42.82003234 480.11021162 41.8203125 479.05859375 C39.10684965 476.112319 37.94278159 473.7396389 37 469.9375 C36.21177996 467.35961406 35.73495861 465.92298914 33.54541016 464.29541016 C27.00878251 461.40072488 20.96505575 460.86632212 13.875 460.5625 C-2.87446063 459.53858762 -17.83524607 456.29388263 -33.50195312 450.39208984 C-36.76417484 449.18824217 -40.05581123 448.07452297 -43.34619141 446.95043945 C-51.09687287 444.294586 -58.62650289 441.42514487 -66.11328125 438.09375 C-69.70055589 436.58331857 -73.31407322 435.25752941 -76.98071289 433.95678711 C-85.65113564 430.87899289 -93.24890106 427.48589278 -100.77685547 422.11694336 C-106.33346269 418.22368399 -111.93190933 415.60904247 -118.25 413.1875 C-125.6792585 410.24837781 -132.94125679 407.14350482 -140.12597656 403.65283203 C-145.28161086 401.17963606 -150.52404114 398.99275668 -155.82470703 396.84936523 C-186.75850367 384.31268662 -186.75850367 384.31268662 -193.75 368.4375 C-194.08 367.48875 -194.41 366.54 -194.75 365.5625 C-191.83175756 363.89575679 -189.77405621 363.3192992 -186.421875 363.3671875 C-185.62265625 363.37363281 -184.8234375 363.38007813 -184 363.38671875 C-183.175 363.40347656 -182.35 363.42023438 -181.5 363.4375 C-180.65953125 363.44652344 -179.8190625 363.45554687 -178.953125 363.46484375 C-176.88529396 363.48834183 -174.81761005 363.52421092 -172.75 363.5625 C-173.67941406 363.15 -174.60882813 362.7375 -175.56640625 362.3125 C-183.63563656 358.60098097 -191.03667719 355.11065239 -194.62890625 346.44140625 C-195.74640164 341.50506836 -194.46179447 338.43637036 -191.875 334.1875 C-187.80485547 328.39599 -183.32630638 322.95757046 -178.75 317.5625 C-177.87111752 316.4984504 -176.99355124 315.43331252 -176.1171875 314.3671875 C-167.70603286 304.18987153 -158.77778008 294.9839943 -148.421875 286.734375 C-145.83767871 284.63377099 -143.38594576 282.44391079 -140.9375 280.1875 C-135.96840384 275.66515224 -130.74087536 271.54931377 -125.43359375 267.4375 C-123.00295809 265.55207165 -120.60161533 263.63770473 -118.22265625 261.6875 C-106.26409332 251.90396402 -93.63397559 243.08221158 -80.75 234.5625 C-82.25956715 233.05293285 -83.66537958 233.33383631 -85.7734375 233.203125 C-116.92242308 230.96782138 -144.70367536 219.83838866 -167.75 198.5625 C-168.64589844 197.7375 -169.54179687 196.9125 -170.46484375 196.0625 C-193.78077138 173.64472059 -207.92946816 141.90316285 -208.953125 109.57421875 C-209.51534369 71.80655929 -197.7365461 40.09640612 -171.75 12.5625 C-171.06550781 11.81355469 -170.38101563 11.06460938 -169.67578125 10.29296875 C-126.80179751 -34.95850022 -48.18911803 -38.86219196 0 0 Z " fill="#16143A" transform="translate(366.75,59.4375)"/>
<path d="M0 0 C1.75942691 1.50991754 3.5097336 3.03053822 5.25 4.5625 C6.08015625 5.25988281 6.9103125 5.95726562 7.765625 6.67578125 C33.38914705 28.71362176 48.22452865 60.79095585 50.84228516 94.22875977 C51.88321845 110.04417808 51.02807876 127.62635524 45.25 142.5625 C42.61176574 145.31840199 39.32872849 146.45066662 35.81860352 147.85620117 C20.3939973 154.05480664 8.86971119 163.43429137 1.6875 178.75 C-7.66710154 198.43233278 -32.09210913 208.08154528 -50.375 217.453125 C-52.18783573 218.38476367 -54.00034273 219.31704232 -55.8125 220.25 C-57.11658813 220.91938599 -57.11658813 220.91938599 -58.44702148 221.60229492 C-64.83128227 224.93658992 -70.62461657 228.71903229 -76.3515625 233.078125 C-77.14304687 233.56796875 -77.93453125 234.0578125 -78.75 234.5625 C-79.74 234.2325 -80.73 233.9025 -81.75 233.5625 C-83.15277022 233.40717837 -84.56018884 233.29169454 -85.96875 233.203125 C-117.03028502 230.95699501 -144.77509728 219.77245343 -167.75 198.5625 C-168.64589844 197.7375 -169.54179687 196.9125 -170.46484375 196.0625 C-193.78077138 173.64472059 -207.92946816 141.90316285 -208.953125 109.57421875 C-209.51534369 71.80655929 -197.7365461 40.09640612 -171.75 12.5625 C-171.06550781 11.81355469 -170.38101563 11.06460938 -169.67578125 10.29296875 C-126.80179751 -34.95850022 -48.18911803 -38.86219196 0 0 Z " fill="#E75D32" transform="translate(366.75,59.4375)"/>
<path d="M0 0 C1.19536377 0.00016113 2.39072754 0.00032227 3.62231445 0.00048828 C17.17317301 0.1666063 30.46130328 1.99264323 43.85742188 3.89648438 C49.50544415 4.67871471 55.1706252 5.27826036 60.83984375 5.8828125 C63.47261865 6.2559617 65.87501241 6.74316149 68.44140625 7.37988281 C73.22955123 8.45540028 77.82834354 8.71897396 82.72265625 8.7890625 C83.57556747 8.80842865 84.4284787 8.8277948 85.30723572 8.8477478 C87.99639294 8.90690102 90.6855945 8.95366838 93.375 9 C95.21290794 9.03823911 97.0507991 9.07729417 98.88867188 9.1171875 C103.3631428 9.2125485 107.83769738 9.29681253 112.3125 9.375 C111.9825 10.365 111.6525 11.355 111.3125 12.375 C110.3225 12.705 109.3325 13.035 108.3125 13.375 C103.9452777 19.70148984 101.56692244 27.66724614 98.98730469 34.86499023 C96.37157364 41.91685975 93.18316142 47.71934731 86.625 51.75 C85.85800781 52.23210938 85.09101563 52.71421875 84.30078125 53.2109375 C82.99550588 53.97512622 81.6653424 54.6985788 80.3125 55.375 C85.81855557 55.59263065 90.54947712 54.86597098 95.875 53.5 C96.71200439 53.28875488 97.54900879 53.07750977 98.41137695 52.85986328 C109.29457589 50.00000207 119.92780388 46.30492394 130.57421875 42.6796875 C131.74138428 42.28338135 132.9085498 41.8870752 134.11108398 41.47875977 C136.05490702 40.80858331 137.99365961 40.12309393 139.92211914 39.40991211 C144.96781911 37.57859791 148.9942519 37.04207438 154.375 37.1875 C156.34146484 37.22810547 156.34146484 37.22810547 158.34765625 37.26953125 C159.81525391 37.32173828 159.81525391 37.32173828 161.3125 37.375 C162.82766221 40.40532442 162.48278053 43.02614962 162.3125 46.375 C161.69575228 48.06077711 161.02977778 49.72948038 160.3125 51.375 C159.12225913 56.79439459 159.09376263 62.16573738 159.0625 67.6875 C159.041875 68.58662109 159.02125 69.48574219 159 70.41210938 C158.96806601 75.93269829 159.72923714 80.2825158 161.65820312 85.44799805 C163.27551074 90.21121036 162.00389167 94.89793598 159.9375 99.3125 C157.73637246 102.1062388 156.08321139 103.27881338 152.53271484 103.72192383 C142.66200834 103.86077737 134.31478638 101.90333717 124.9375 99.0625 C123.52781968 98.65265632 122.11766337 98.24444622 120.70703125 97.83789062 C114.14195101 95.92803067 107.68321398 93.86721085 101.3125 91.375 C92.46078068 89.16207017 83.56899094 89.56431187 75.3125 93.375 C76.11171875 93.34277344 76.9109375 93.31054688 77.734375 93.27734375 C89.96740631 93.40656591 96.24972105 99.62663056 104.875 107.5625 C109.50835915 111.81258495 114.69997739 114.60545613 120.3125 117.375 C104.06465379 125.91862211 85.70090705 127.06202179 67.75 127 C66.85954987 127.00058411 65.96909973 127.00116821 65.05166626 127.00177002 C43.34683478 126.94323879 43.34683478 126.94323879 36.03808594 121.76293945 C32.46576209 119.94381897 29.48136054 120.18969616 25.60546875 120.51953125 C24.88007401 120.56816818 24.15467926 120.61680511 23.40730286 120.66691589 C21.10346269 120.82494876 18.8020874 121.00586389 16.5 121.1875 C14.93304998 121.2990434 13.36599236 121.40908592 11.79882812 121.51757812 C7.96858791 121.7860216 4.14039183 122.0749906 0.3125 122.375 C1.48425781 123.53128906 1.48425781 123.53128906 2.6796875 124.7109375 C9.19942801 131.30806365 12.3125 139.0945116 12.3125 148.375 C-0.42900565 149.16803977 -11.27335156 147.40877165 -21.6875 139.375 C-21.6875 140.365 -21.6875 141.355 -21.6875 142.375 C-23.6875 142.375 -23.6875 142.375 -25.16796875 140.90625 C-25.73128906 140.2359375 -26.29460937 139.565625 -26.875 138.875 C-27.79732422 137.78638672 -27.79732422 137.78638672 -28.73828125 136.67578125 C-29.38152344 135.91652344 -30.02476562 135.15726563 -30.6875 134.375 C-32.55636599 132.29233869 -34.42742226 130.21181239 -36.3046875 128.13671875 C-37.6875 126.375 -37.6875 126.375 -38.6875 123.375 C-39.79931641 123.24544922 -39.79931641 123.24544922 -40.93359375 123.11328125 C-54.261818 121.33509711 -66.61254419 117.42312321 -79 112.25 C-80.20970459 111.74509033 -80.20970459 111.74509033 -81.44384766 111.22998047 C-87.18490635 108.75835635 -87.18490635 108.75835635 -89.65405273 106.875 C-91.78420072 105.3036674 -93.69981305 104.43600572 -96.171875 103.5078125 C-97.02523437 103.17910156 -97.87859375 102.85039063 -98.7578125 102.51171875 C-100.52801439 101.84337722 -102.29883765 101.17667889 -104.0703125 100.51171875 C-118.02634908 95.12628121 -118.02634908 95.12628121 -121.6875 89.0625 C-122.1825 87.7321875 -122.1825 87.7321875 -122.6875 86.375 C-119.7175 85.88 -119.7175 85.88 -116.6875 85.375 C-117.491875 84.7975 -118.29625 84.22 -119.125 83.625 C-121.6875 81.375 -121.6875 81.375 -122.75 79.5 C-122.5040453 71.13754032 -110.32956077 61.84162288 -104.75 56.5625 C-93.13939484 46.23654163 -80.27936114 37.82259514 -66.6875 30.375 C-64.00403361 28.77125075 -61.33648502 27.14504622 -58.67578125 25.50390625 C-56.6875 24.375 -56.6875 24.375 -53.6875 23.375 C-52.57275608 21.53689781 -52.57275608 21.53689781 -51.6875 19.375 C-47.7342252 11.66764642 -43.50340687 7.93324721 -35.22265625 5.25390625 C-31.39451384 4.1929084 -27.57063904 3.20783055 -23.6875 2.375 C-22.86741455 2.19549805 -22.0473291 2.01599609 -21.20239258 1.83105469 C-14.10573316 0.39748974 -7.23094244 -0.00937393 0 0 Z " fill="#16143A" transform="translate(225.6875,514.625)"/>
<path d="M0 0 C4.4937154 2.2468577 6.94244679 4.44014754 9 9 C9.40701045 12.44781339 9.34898268 15.86454108 9.29296875 19.33203125 C9.28872391 20.32377853 9.28447906 21.31552582 9.28010559 22.33732605 C9.26335123 25.49599685 9.22570448 28.65402297 9.1875 31.8125 C9.17244899 33.95767306 9.15876132 36.10285615 9.14648438 38.24804688 C9.11345841 43.49891681 9.06329122 48.74941234 9 54 C9.75023437 53.60167969 10.50046875 53.20335937 11.2734375 52.79296875 C21.66564227 47.4136285 30.37938903 44.42133746 42.125 44.5 C43.12692383 44.50572021 44.12884766 44.51144043 45.16113281 44.51733398 C62.74300195 44.93534672 76.5480324 51.85770861 88.85449219 64.31030273 C93.2932232 69.03433883 96.38113739 74.06391142 99 80 C99.38671875 80.8559375 99.7734375 81.711875 100.171875 82.59375 C107.09782168 98.8546683 106.11185737 114.73681337 99.8125 131.1875 C92.29928436 148.00279216 79.53489582 157.9883104 63 165 C50.2244171 169.86454887 35.84048987 169.18948186 23 165 C22.14921875 164.73316406 21.2984375 164.46632813 20.421875 164.19140625 C5.81105336 159.0224835 -5.77479012 147.45764282 -13 134 C-17.55045293 123.85008006 -19.30483202 113.66053545 -19.2746582 102.59667969 C-19.27976913 101.60999298 -19.28488007 100.62330627 -19.29014587 99.60671997 C-19.30393189 96.37837492 -19.30309438 93.15024579 -19.30078125 89.921875 C-19.30467229 87.66367515 -19.3090078 85.40547602 -19.31376648 83.14727783 C-19.32120357 78.43019224 -19.32095423 73.71318155 -19.31567383 68.99609375 C-19.3098618 62.95464817 -19.32686427 56.91350743 -19.3500185 50.87211227 C-19.36474874 46.21553764 -19.36562885 41.55903673 -19.36250877 36.90244293 C-19.36302166 34.6745264 -19.36825319 32.4466057 -19.37832069 30.21871185 C-19.39066304 27.10751934 -19.38390795 23.99692518 -19.37231445 20.88574219 C-19.37995819 19.96924896 -19.38760193 19.05275574 -19.39547729 18.10848999 C-19.35331711 12.98722313 -18.86703199 9.42550541 -16 5 C-10.74299 0.25586902 -6.97726672 -0.8457293 0 0 Z " fill="#16143A" transform="translate(295,661)"/>
<path d="M0 0 C13.31722248 10.13492516 21.95896403 24.48211568 25 41 C26.74038877 58.27504122 23.19439003 74.42753235 12.8125 88.5625 C2.62906984 100.95306845 -10.84002723 109.93583777 -27 112 C-40.39531118 112.98190243 -52.2244695 112.06588909 -64.34765625 105.8828125 C-65.41121338 105.34285645 -66.47477051 104.80290039 -67.57055664 104.24658203 C-68.37227295 103.83520996 -69.17398926 103.42383789 -70 103 C-69.98428955 104.21059082 -69.9685791 105.42118164 -69.95239258 106.66845703 C-69.89795031 111.17473658 -69.86359793 115.68098724 -69.83520508 120.1875 C-69.82015101 122.13514094 -69.7997032 124.08274816 -69.77368164 126.03027344 C-69.73714947 128.83537128 -69.72023967 131.64001954 -69.70703125 134.4453125 C-69.69154739 135.31116974 -69.67606354 136.17702698 -69.66011047 137.06912231 C-69.6583802 143.33370174 -70.76174167 147.56424829 -75.125 152.3125 C-79.06765274 154.62666574 -82.43040564 155.44859579 -87 155 C-92.24522105 152.9364555 -95.59703546 150.12676587 -98 145 C-98.4475681 141.66750987 -98.42007778 138.35842962 -98.40405273 135 C-98.41091599 133.99602676 -98.41777924 132.99205353 -98.42485046 131.95765686 C-98.44314987 128.63829391 -98.43927373 125.31940261 -98.43359375 122 C-98.43815655 119.68416185 -98.44346242 117.36832506 -98.44947815 115.05249023 C-98.45841734 110.19362905 -98.45597979 105.33493212 -98.44604492 100.47607422 C-98.43459988 94.2770156 -98.45469438 88.07853041 -98.48396206 81.87954712 C-98.50240065 77.09226933 -98.50201557 72.30512669 -98.49632454 67.51782227 C-98.49617202 65.23428549 -98.50215877 62.95073913 -98.51461601 60.66723633 C-98.61144167 39.99383404 -95.61275378 22.79528877 -81 7 C-73.83572119 0.08871338 -66.26701051 -4.43488622 -57 -8 C-55.69482422 -8.51046875 -55.69482422 -8.51046875 -54.36328125 -9.03125 C-36.16370579 -15.05132397 -15.59256082 -10.35536482 0 0 Z " fill="#16143A" transform="translate(237,714)"/>
<path d="M0 0 C10.66282337 9.23378518 18.82112728 22.89682319 21.1875 36.875 C21.4868449 41.5250172 21.49160524 46.16569852 21.48828125 50.82421875 C21.49217546 52.1684431 21.49651161 53.51266624 21.50126648 54.85688782 C21.50868901 57.6599224 21.50846469 60.4628309 21.50317383 63.26586914 C21.49735824 66.85031324 21.51437899 70.43424412 21.5375185 74.01860332 C21.55226895 76.78877251 21.55312624 79.55881805 21.55000877 82.32901955 C21.55076818 84.29047039 21.56461443 86.25190213 21.57868958 88.21330261 C21.57246078 89.40836929 21.56623199 90.60343597 21.55981445 91.8347168 C21.56044388 92.88314255 21.5610733 93.9315683 21.5617218 95.01176453 C20.89198962 100.13600083 17.9961602 103.54242232 14.1875 106.875 C10.08841112 108.24136296 6.46396278 108.63258529 2.1875 107.875 C-1.3389081 105.87017169 -4.26629618 103.62533496 -5.5 99.671875 C-5.603125 99.07890625 -5.70625 98.4859375 -5.8125 97.875 C-6.70710938 98.41769531 -7.60171875 98.96039062 -8.5234375 99.51953125 C-22.77018881 108.00985967 -36.08213741 111.49096311 -52.8125 108.875 C-70.68208066 104.30200351 -85.23493972 93.6811741 -94.8125 77.875 C-102.19934672 63.1952868 -104.78635667 45.81268882 -100.1875 29.8125 C-96.27241523 19.1449171 -90.82146866 10.91153826 -82.8125 2.875 C-82.19761719 2.23691406 -81.58273437 1.59882812 -80.94921875 0.94140625 C-58.5541713 -20.5904488 -23.49457352 -17.8009025 0 0 Z " fill="#16143A" transform="translate(508.8125,719.125)"/>
<path d="M0 0 C-1 3 -1 3 -2.76953125 4.12109375 C-5.07368234 5.0290342 -7.25925339 5.58487794 -9.6875 6.0625 C-12.62766119 6.47713272 -12.62766119 6.47713272 -15 8 C-15.06832031 9.05703125 -15.13664063 10.1140625 -15.20703125 11.203125 C-16.17792623 15.85194236 -18.26141952 17.75094112 -21.6875 20.75 C-27.2417066 25.93320174 -31.81930729 31.45869049 -36.25 37.625 C-36.84393555 38.44943604 -37.43787109 39.27387207 -38.04980469 40.12329102 C-39.19263845 41.71277328 -40.33445015 43.30299106 -41.47509766 44.89404297 C-48.56489633 54.68536595 -56.86246719 63.40797775 -65.20898438 72.12109375 C-66.8058604 73.79633338 -68.38200641 75.48817118 -69.953125 77.1875 C-77.92114007 85.57488429 -86.73368325 91.14088833 -97.17578125 96.06640625 C-99.85037511 97.43520268 -102.29187182 99.12867801 -104.75 100.8515625 C-110.90331926 103.99231921 -117.35380217 104.36048322 -124.125 104.3125 C-125.36842163 104.30512817 -125.36842163 104.30512817 -126.63696289 104.29760742 C-138.53165313 104.07387205 -149.34163226 101.27535373 -160 96 C-161.23169922 95.47599609 -161.23169922 95.47599609 -162.48828125 94.94140625 C-165.12262334 93.51427599 -166.39539645 92.55318133 -168 90 C-168.67866262 85.69886546 -168.82645975 81.5479217 -168.8828125 77.203125 C-169.01207238 68.38995106 -172.11974231 60.59644292 -178 54 C-180.86215848 51.73178617 -183.82468945 49.79934265 -187 48 C-148.91709971 13.79815962 -77.89406153 5.13596724 -29 1.25 C-28.18348969 1.18479156 -27.36697937 1.11958313 -26.52572632 1.05239868 C-17.67438063 0.35787121 -8.88609813 -0.22019516 0 0 Z " fill="#FDFDFE" transform="translate(556,361)"/>
<path d="M0 0 C3.58613959 2.21272443 5.38645298 4.15881087 7 8 C7.2784729 9.99957275 7.2784729 9.99957275 7.31884766 12.12597656 C7.33871735 12.92650452 7.35858704 13.72703247 7.37905884 14.55181885 C7.39061005 15.40612488 7.40216125 16.26043091 7.4140625 17.140625 C7.43342865 18.02280701 7.4527948 18.90498901 7.4727478 19.81390381 C7.53242848 22.62583816 7.57888283 25.4378137 7.625 28.25 C7.66319038 30.15887181 7.70224273 32.06772659 7.7421875 33.9765625 C7.83812058 38.65090296 7.92219416 43.32532409 8 48 C8.6595166 47.58862793 9.3190332 47.17725586 9.99853516 46.75341797 C10.87815918 46.21346191 11.7577832 45.67350586 12.6640625 45.1171875 C13.5298291 44.58206543 14.3955957 44.04694336 15.28759766 43.49560547 C26.09492733 37.53649641 38.42009967 37.699261 50.0546875 40.96484375 C63.64222809 45.74030563 73.23796021 54.39161332 80 67 C84.88145016 77.19002721 86.31032652 86.81408787 86.30078125 98.04296875 C86.30506638 99.17019852 86.3093515 100.29742828 86.31376648 101.45881653 C86.31948091 103.82792492 86.32003148 106.19705084 86.31567383 108.56616211 C86.31250045 112.18698866 86.3360564 115.80700779 86.36132812 119.42773438 C86.36360009 121.73697814 86.36430509 124.04622409 86.36328125 126.35546875 C86.372491 127.43370407 86.38170074 128.51193939 86.39118958 129.62284851 C86.35129779 136.10140947 85.76759764 140.65581951 81.5 145.8125 C78.17857451 148.44196184 74.34006857 148.39114888 70.2890625 148.3515625 C66.33954932 147.74498198 64.69798805 145.89540181 62 143 C60.03685875 139.83856923 59.74966701 137.42677593 59.74462891 133.73168945 C59.73766998 132.6799202 59.73071106 131.62815094 59.72354126 130.54450989 C59.72453827 129.41220444 59.72553528 128.27989899 59.7265625 127.11328125 C59.70626608 124.70637562 59.68541516 122.29947462 59.6640625 119.89257812 C59.64150536 116.10518496 59.62500848 112.31797473 59.61914062 108.53051758 C59.60958197 104.8702702 59.57575415 101.21084352 59.5390625 97.55078125 C59.54663071 95.86750481 59.54663071 95.86750481 59.55435181 94.15022278 C59.44808441 85.59698847 57.49878992 79.78388188 52.8125 72.6875 C47.18484837 67.30996622 41.80399582 65.74884277 34.0625 65.4375 C25.6925548 65.70837201 19.33212543 68.16199465 13.5625 74.3125 C7.64888431 81.3205759 7.58021617 89.47334107 7.62890625 98.1640625 C7.61153373 100.52604319 7.59394925 102.88802232 7.57617188 105.25 C7.56608119 108.94761926 7.56250926 112.64514094 7.56420898 116.34277344 C7.56064051 119.9293294 7.53331501 123.51513932 7.50390625 127.1015625 C7.51208878 128.20480865 7.5202713 129.30805481 7.52870178 130.44473267 C7.45560656 137.98201229 6.33842732 141.29063631 1.3125 146.875 C-2.40099143 148.6815634 -5.95836721 148.64441979 -10 148 C-13.8026029 145.9949912 -15.61790841 144.57313738 -18 141 C-18.26285553 138.55768204 -18.26285553 138.55768204 -18.28088379 135.59918213 C-18.29230408 134.47767761 -18.30372437 133.3561731 -18.31549072 132.20068359 C-18.31772644 130.96946777 -18.31996216 129.73825195 -18.32226562 128.46972656 C-18.33219543 127.17355408 -18.34212524 125.87738159 -18.35235596 124.54193115 C-18.3785918 120.98390307 -18.39149179 117.42595046 -18.40037727 113.86784077 C-18.4062418 111.64373321 -18.41445207 109.41964621 -18.42338562 107.19554901 C-18.4507347 100.23355463 -18.47006737 93.2716073 -18.4777894 86.30956292 C-18.48674579 78.27915464 -18.52181767 70.24942809 -18.57979059 62.21922708 C-18.62306769 56.00847876 -18.64320029 49.79792191 -18.64587164 43.58702445 C-18.64796507 39.87930575 -18.65971971 36.1722279 -18.69551086 32.46466827 C-18.73469246 28.32531103 -18.72587842 24.18737392 -18.71289062 20.04785156 C-18.73132019 18.82473267 -18.74974976 17.60161377 -18.76873779 16.34143066 C-18.70508324 9.8676592 -18.2342419 5.866555 -13.58040619 1.17019272 C-9.40338032 -1.92263575 -4.77707825 -1.09142385 0 0 Z " fill="#E55831" transform="translate(813,686)"/>
<path d="M0 0 C3.82038425 3.19065059 6.64949463 5.93164148 7.23828125 11.0859375 C7.36915174 15.12225906 7.361333 17.39347675 5.25 20.9375 C1.69230596 24.19871954 0.32089723 25.02277409 -4.625 24.9375 C-8.10847591 24.4271006 -10.48732669 23.22278789 -13.5 21.4375 C-18.16973409 18.93196616 -22.11671449 18.51003731 -27.3125 18.5 C-28.33537109 18.49117798 -28.33537109 18.49117798 -29.37890625 18.48217773 C-33.68000489 18.58854103 -36.66659828 19.22216523 -40 22 C-40.41725678 25.62599422 -40.41725678 25.62599422 -40 29 C-34.03387717 32.18100612 -28.13194676 34.37021642 -21.6875 36.375 C-9.18695047 40.42523889 2.90921813 44.88373326 9.375 57.125 C13.05315153 64.83312625 12.72138458 73.81432896 10.0625 81.82421875 C5.13653408 92.40532318 -2.35612624 97.63364025 -13 102 C-26.18858019 106.51131466 -40.67983363 104.00218469 -53.13671875 98.4765625 C-60.52087231 94.66863611 -66.67399088 89.78048563 -70 82 C-71.1595432 78.08654169 -71.44044511 75.04315946 -69.8125 71.1875 C-67.0222034 67.81990065 -65.08078336 66.34585068 -60.875 65 C-55.39238474 65 -51.5778807 67.10445002 -47 70 C-45.66666667 71.33333333 -44.33333333 72.66666667 -43 74 C-36.30926301 78.20519323 -29.76698645 78.8826121 -22 78 C-18.31959956 77.20904064 -18.31959956 77.20904064 -16 75 C-15.02126462 71.40614946 -15.02126462 71.40614946 -15 68 C-20.61275258 63.39855419 -26.60614012 60.87758762 -33.375 58.5 C-46.48532039 53.87327573 -58.30307648 48.89154438 -65.0546875 36.1484375 C-68.25289372 28.87978701 -67.8980617 20.57489778 -65.09375 13.2265625 C-60.56963707 4.01676117 -53.7248697 -1.56799233 -44.1484375 -5.03125 C-30.29933592 -8.97769583 -12.2045348 -8.49503582 0 0 Z " fill="#E55831" transform="translate(763,732)"/>
<path d="M0 0 C2.64053321 2.43207006 4.22906246 4.09127152 4.7109375 7.7109375 C4.81647157 15.41492475 4.81647157 15.41492475 2.625 19.25 C-1.68570343 22.96199462 -5.56150688 23.58498767 -11.08984375 24.234375 C-14.76155013 25.61480082 -16.85715768 27.76795418 -18.625 31.1875 C-19.33144682 34.48543336 -19.41469561 37.69758624 -19.4375 41.0625 C-19.46263672 41.94164062 -19.48777344 42.82078125 -19.51367188 43.7265625 C-19.57218195 45.8797332 -19.60154236 48.03366221 -19.625 50.1875 C-18.64660156 50.13529297 -18.64660156 50.13529297 -17.6484375 50.08203125 C-10.76374002 49.86878841 -6.59116436 50.61162042 -1.25 55.25 C1.12880468 59.55014691 1.01662501 63.37927304 0.375 68.1875 C-0.95110787 71.650115 -2.13968006 72.83564304 -5.125 75 C-8.56255906 76.16631468 -10.76353675 76.3120324 -14.34375 76.26171875 C-15.8277832 76.24564575 -15.8277832 76.24564575 -17.34179688 76.22924805 C-18.09525391 76.21547119 -18.84871094 76.20169434 -19.625 76.1875 C-19.61611755 76.93616837 -19.60723511 77.68483673 -19.5980835 78.45619202 C-19.51773543 85.53242225 -19.45693347 92.60849289 -19.41775131 99.68505192 C-19.39692954 103.32270425 -19.36871268 106.95997776 -19.32324219 110.59741211 C-19.27958866 114.11173125 -19.25582224 117.62568741 -19.24549103 121.14025688 C-19.23456868 123.12496295 -19.20337372 125.10952421 -19.17181396 127.0940094 C-19.1701087 133.98415818 -19.30335321 138.6746049 -23.625 144.1875 C-27.94233382 147.1616633 -31.43576076 147.8361549 -36.625 147.1875 C-41.60373683 144.69813159 -43.51462206 142.26104569 -45.625 137.1875 C-45.98576355 134.150177 -45.98576355 134.150177 -45.96557617 130.90673828 C-45.96534958 129.6859256 -45.96512299 128.46511292 -45.96488953 127.20730591 C-45.94940567 125.90397308 -45.93392181 124.60064026 -45.91796875 123.2578125 C-45.91236703 121.89875763 -45.90809966 120.53969666 -45.90510559 119.18063354 C-45.89370194 115.61965945 -45.86427429 112.05905785 -45.83099365 108.49822998 C-45.80019543 104.85824623 -45.78657952 101.21820175 -45.77148438 97.578125 C-45.73939956 90.44776514 -45.68825826 83.31765701 -45.625 76.1875 C-46.23553223 76.20780273 -46.84606445 76.22810547 -47.47509766 76.24902344 C-48.68238525 76.27270996 -48.68238525 76.27270996 -49.9140625 76.296875 C-50.71021973 76.31717773 -51.50637695 76.33748047 -52.32666016 76.35839844 C-56.69701191 76.03343071 -59.44728684 73.51172294 -62.2578125 70.3515625 C-64.67345946 66.52793845 -64.36031178 62.5443941 -63.625 58.1875 C-61.94271035 54.79522868 -59.57205886 52.75061608 -56.3125 50.8125 C-52.6896646 49.96998014 -49.34523238 50.14957714 -45.625 50.1875 C-45.6564209 49.31967896 -45.6564209 49.31967896 -45.68847656 48.43432617 C-46.15106834 33.72068721 -46.09794414 21.57743003 -35.625 10.1875 C-27.32406463 1.78323349 -11.81361428 -7.66130431 0 0 Z " fill="#E55932" transform="translate(630.625,687.8125)"/>
<path d="M0 0 C6.85068323 5.73780853 11.95120527 14.19106247 12.84375 23.12890625 C13.17293265 33.86849028 10.86557347 42.32045733 3.5625 50.3125 C-3.34718905 57.62864135 -10.91928189 60.50952969 -20.9375 60.8125 C-31.70508893 60.45538399 -38.44665131 57.23235213 -46.234375 49.82421875 C-53.07854088 42.02138424 -54.80929814 33.79924302 -54.71875 23.703125 C-54.30247734 18.68472677 -52.80235456 14.7222123 -50.4375 10.3125 C-50.09847656 9.67699219 -49.75945312 9.04148437 -49.41015625 8.38671875 C-44.97566671 1.26944194 -37.67837809 -3.30210518 -29.75 -5.625 C-19.36403908 -7.94264818 -8.89603142 -6.14168323 0 0 Z " fill="#FDFDFD" transform="translate(489.4375,739.6875)"/>
<path d="M0 0 C7.65588047 5.42451832 12.85895691 13.22812747 14.51953125 22.52734375 C15.45297581 32.52368638 13.17393665 41.24480906 7.3125 49.421875 C1.13166417 56.67998069 -6.12324696 60.9659473 -15.62109375 61.8046875 C-25.94747481 62.104873 -33.33554043 60.25459161 -41.3359375 53.61328125 C-49.26952135 45.89646199 -52.39963805 38.48177612 -52.85546875 27.65234375 C-52.66759582 18.32914969 -48.95836947 10.2211745 -42.48046875 3.52734375 C-29.63199034 -7.16355998 -14.45574515 -8.58238728 0 0 Z " fill="#FDFDFD" transform="translate(219.48046875,736.47265625)"/>
<path d="M0 0 C7.87681675 5.78089855 13.50571793 12.43010145 16 22 C17.1635647 32.05319904 15.98556359 40.94500917 10.375 49.46875 C4.65594212 56.61757236 -2.54304458 60.93154745 -11.53125 62.69140625 C-20.84423928 63.65307362 -28.51326981 62.69490634 -36.25 57.25 C-43.83776551 51.02374887 -49.96598606 43.08163588 -51 33 C-51.69424972 22.75981661 -48.68729839 13.8357692 -42 6 C-30.57153581 -4.89936862 -14.20067094 -8.56548406 0 0 Z " fill="#FDFDFD" transform="translate(355,738)"/>
<path d="M0 0 C3.50551234 1.34253664 4.62523806 2.3994224 6.60365295 5.56994629 C8.32974837 9.81000967 8.42948711 13.22896764 8.40405273 17.75585938 C8.41091599 18.61516556 8.41777924 19.47447174 8.42485046 20.3598175 C8.44308691 23.18796513 8.43928592 26.01555644 8.43359375 28.84375 C8.43815665 30.81620463 8.44346255 32.78865767 8.44947815 34.7611084 C8.45840274 38.89012115 8.45599302 43.0189404 8.44604492 47.14794922 C8.43454867 52.43408702 8.45478023 57.71955746 8.48396206 63.0056076 C8.50232317 67.07717109 8.50203189 71.14857456 8.49632454 75.22016907 C8.49617135 77.16898028 8.50221339 79.11780235 8.51461601 81.0665741 C8.52952468 83.79285374 8.51885054 86.51789912 8.50170898 89.24414062 C8.51137695 90.04535843 8.52104492 90.84657623 8.53100586 91.67207336 C8.45014618 97.82597968 6.45767534 101.26924963 2.3125 105.875 C-1.40964436 107.68577293 -4.94917364 107.62590893 -9 107 C-14.02901312 104.57862331 -15.94519714 102.11188845 -18 97 C-18.28517396 94.07434891 -18.4208934 91.36511978 -18.40405273 88.44360352 C-18.41091599 87.60541077 -18.41777924 86.76721802 -18.42485046 85.90362549 C-18.44308478 83.14521124 -18.4392858 80.38736758 -18.43359375 77.62890625 C-18.43815718 75.7036877 -18.44346324 73.77847079 -18.44947815 71.85325623 C-18.45840265 67.82259494 -18.45599364 63.79213186 -18.44604492 59.76147461 C-18.4345564 54.60546506 -18.45476838 49.4501405 -18.48396206 44.29422092 C-18.50234003 40.31955139 -18.5020284 36.34504553 -18.49632454 32.37034416 C-18.49617152 30.46980771 -18.50219989 28.56926002 -18.51461601 26.66876411 C-18.52955439 24.0073405 -18.51882846 21.3471762 -18.50170898 18.68579102 C-18.51137695 17.90686996 -18.52104492 17.12794891 -18.53100586 16.32542419 C-18.44646775 10.0244135 -16.64827729 5.61097761 -12.05859375 1.0859375 C-8.21717791 -0.94046403 -4.21677069 -0.4928693 0 0 Z " fill="#E55933" transform="translate(668,727)"/>
<path d="M0 0 C-0.33 0.66 -0.66 1.32 -1 2 C-2.32 2 -3.64 2 -5 2 C-5.0928125 3.0828125 -5.0928125 3.0828125 -5.1875 4.1875 C-6.05672931 7.1963707 -7.15281568 8.35384117 -9.41796875 10.4296875 C-11.42654943 12.4233898 -13.12431386 14.58929857 -14.875 16.8125 C-15.56722656 17.68132813 -16.25945312 18.55015625 -16.97265625 19.4453125 C-18.2190986 21.01597396 -19.45787823 22.59279827 -20.68359375 24.1796875 C-25.74643782 30.42021952 -32.31823929 35.4394131 -40 38 C-47.55084431 38.75508443 -53.41211521 37.81484492 -60 34 C-61.81649757 32.18350243 -61.24254361 29.09048972 -61.328125 26.6171875 C-62.31064927 22.78991274 -64.5859664 20.07551856 -67 17 C-46.02442625 5.75910077 -23.9804066 -0.4524605 0 0 Z " fill="#FBFBFC" transform="translate(243,578)"/>
<path d="M0 0 C4.51846921 3.04505534 8.13526194 6.71828583 9.875 11.9375 C10.3892514 18.10851685 9.77155804 22.03692088 5.875 26.9375 C2.13930336 30.71315062 -1.58649018 33.53364616 -6.875 34.375 C-12.77386828 33.58092158 -17.25273823 30.23142497 -21.0625 25.75 C-24.62889828 20.88672961 -25.02954452 16.88661974 -24.125 10.9375 C-19.46248049 1.14620904 -10.44508921 -3.55133033 0 0 Z " fill="#F7F7F8" transform="translate(265.125,341.0625)"/>
<path d="M0 0 C3.65671794 2.05979682 6.82742347 4.89598214 8 9 C8.42537199 14.35968704 8.48854141 17.66939687 5 22 C0.61520166 25.85006683 -1.95905681 27.3606608 -7.90234375 27.28515625 C-12.11636216 26.71230086 -14.80672658 24.1109787 -17.8125 21.3125 C-19.68427139 17.66747151 -20.11343626 14.0766155 -20 10 C-18.38944896 5.25782193 -16.12544386 2.7846746 -12 0 C-7.80465573 -1.39844809 -4.27012435 -1.07117454 0 0 Z " fill="#E45832" transform="translate(669,688)"/>
<path d="M0 0 C2.92590695 2.29327842 4.60346373 4.57940897 6 8 C6.23849699 12.88918839 5.68972078 16.90979619 3.0625 21.0625 C0.39020451 23.57283819 -0.62366696 23.95029564 -4.3125 24.4375 C-8.15821805 23.98122837 -8.55561415 23.91937138 -10.875 21.1875 C-13.93247074 16.6012939 -14.36989707 13.45598174 -14 8 C-11.11580183 0.50108475 -8.0411248 -2.15387272 0 0 Z " fill="#1C1A3A" transform="translate(262,347)"/>
<path d="M0 0 C3.4375 0.875 3.4375 0.875 5.4375 3.875 C5.3024925 7.65520989 5.17050521 10.011101 2.6875 12.9375 C0.4375 13.875 0.4375 13.875 -2.125 13.3125 C-4.81523743 11.72594972 -6.13325949 10.65407877 -7.5625 7.875 C-7.42590503 5.0748031 -6.87403277 3.39422128 -5.4375 1 C-3.5625 -0.125 -3.5625 -0.125 0 0 Z " fill="#3B3852" transform="translate(135.5625,570.125)"/>
<path d="M0 0 C6.27 0 12.54 0 19 0 C19 0.33 19 0.66 19 1 C18.31292969 1.04898438 17.62585938 1.09796875 16.91796875 1.1484375 C15.56638672 1.26058594 15.56638672 1.26058594 14.1875 1.375 C13.29417969 1.44460937 12.40085937 1.51421875 11.48046875 1.5859375 C8.75601501 1.86645036 8.75601501 1.86645036 6 4 C6.495 4.4125 6.99 4.825 7.5 5.25 C9 7 9 7 9 11 C11.97 11.495 11.97 11.495 15 12 C15 10.68 15 9.36 15 8 C15.99 8.33 16.98 8.66 18 9 C17.67 10.65 17.34 12.3 17 14 C14.03 13.505 14.03 13.505 11 13 C10.67 14.32 10.34 15.64 10 17 C7.69 16.67 5.38 16.34 3 16 C4.32 15.01 5.64 14.02 7 13 C6.29660434 10.49034386 6.29660434 10.49034386 5 8 C2.95894361 7.11306697 2.95894361 7.11306697 1 7 C1.20625 6.21625 1.4125 5.4325 1.625 4.625 C1.74875 3.75875 1.8725 2.8925 2 2 C1.34 1.34 0.68 0.68 0 0 Z " fill="#E96A3C" transform="translate(277,33)"/>
<path d="M0 0 C2 1.3125 2 1.3125 4 3 C4 3.99 4 4.98 4 6 C5.32 5.67 6.64 5.34 8 5 C8.33 6.65 8.66 8.3 9 10 C9.99 9.67 10.98 9.34 12 9 C12 9.66 12 10.32 12 11 C12.66 11 13.32 11 14 11 C14 11.66 14 12.32 14 13 C2.47835991 11.07289294 2.47835991 11.07289294 -3 9 C-3.33 7.02 -3.66 5.04 -4 3 C-3.34 3 -2.68 3 -2 3 C-1.34 2.01 -0.68 1.02 0 0 Z M2 5 C2 6.32 2 7.64 2 9 C2.66 9 3.32 9 4 9 C3.67 7.68 3.34 6.36 3 5 C2.67 5 2.34 5 2 5 Z " fill="#E86539" transform="translate(248,277)"/>
<path d="M0 0 C1.0625 1.8125 1.0625 1.8125 2 4 C1.67 4.99 1.34 5.98 1 7 C0.01 7.33 -0.98 7.66 -2 8 C-2.66 7.67 -3.32 7.34 -4 7 C-4 8.65 -4 10.3 -4 12 C-4.66 12 -5.32 12 -6 12 C-6 11.01 -6 10.02 -6 9 C-6.66 8.67 -7.32 8.34 -8 8 C-7.9375 6.25 -7.9375 6.25 -7 4 C-4.75835678 2.40498463 -2.46433357 1.25456982 0 0 Z " fill="#E86433" transform="translate(230,46)"/>
<path d="M0 0 C0.99 0 1.98 0 3 0 C2.6875 3.375 2.6875 3.375 2 7 C1.01 7.66 0.02 8.32 -1 9 C-3.6875 8.125 -3.6875 8.125 -6 7 C-5.1875 5.0625 -5.1875 5.0625 -4 3 C-3.01 2.67 -2.02 2.34 -1 2 C-0.67 1.34 -0.34 0.68 0 0 Z " fill="#E6653B" transform="translate(288,285)"/>
<path d="M0 0 C0.61875 0.165 1.2375 0.33 1.875 0.5 C3.96063386 1.07634644 3.96063386 1.07634644 6 1 C6 1.66 6 2.32 6 3 C5.34 3.66 4.68 4.32 4 5 C4.99 5.66 5.98 6.32 7 7 C4.69 7.66 2.38 8.32 0 9 C0 8.34 0 7.68 0 7 C-1.32 6.34 -2.64 5.68 -4 5 C-2 4 -2 4 1 4 C0.67 2.68 0.34 1.36 0 0 Z " fill="#E65431" transform="translate(353,214)"/>
<path d="M0 0 C0.33 0.66 0.66 1.32 1 2 C0.67 2.66 0.34 3.32 0 4 C0.66 4.33 1.32 4.66 2 5 C1.01 5.33 0.02 5.66 -1 6 C-2.68538601 7.99665314 -2.68538601 7.99665314 -4 10 C-4 9.34 -4 8.68 -4 8 C-4.66 8 -5.32 8 -6 8 C-5.8125 5.125 -5.8125 5.125 -5 2 C-2.4375 0.625 -2.4375 0.625 0 0 Z " fill="#E86537" transform="translate(242,41)"/>
<path d="M0 0 C1.65 0 3.3 0 5 0 C5.33 0.66 5.66 1.32 6 2 C5.34 2 4.68 2 4 2 C3.67 2.66 3.34 3.32 3 4 C2.01 3.34 1.02 2.68 0 2 C0 3.32 0 4.64 0 6 C-2.33333333 6 -4.66666667 6 -7 6 C-7 5.34 -7 4.68 -7 4 C-5.02 3.67 -3.04 3.34 -1 3 C-0.67 2.01 -0.34 1.02 0 0 Z " fill="#E86633" transform="translate(366,227)"/>
<path d="M0 0 C1.4540625 0.0309375 1.4540625 0.0309375 2.9375 0.0625 C3.5975 1.3825 4.2575 2.7025 4.9375 4.0625 C3.9475 3.7325 2.9575 3.4025 1.9375 3.0625 C1.6075 4.0525 1.2775 5.0425 0.9375 6.0625 C0.2775 6.0625 -0.3825 6.0625 -1.0625 6.0625 C-1.3925 4.7425 -1.7225 3.4225 -2.0625 2.0625 C-2.3925 3.0525 -2.7225 4.0425 -3.0625 5.0625 C-3.625 3.125 -3.625 3.125 -4.0625 1.0625 C-3.0625 0.0625 -3.0625 0.0625 0 0 Z " fill="#E65531" transform="translate(349.0625,129.9375)"/>
<path d="M0 0 C2.475 0.99 2.475 0.99 5 2 C4.67 2.66 4.34 3.32 4 4 C3.34 4 2.68 4 2 4 C1.67 4.99 1.34 5.98 1 7 C-0.32 6.34 -1.64 5.68 -3 5 C-2.34 4.67 -1.68 4.34 -1 4 C-0.34786708 1.97536745 -0.34786708 1.97536745 0 0 Z " fill="#E96739" transform="translate(348,48)"/>
<path d="M0 0 C1.32 0.33 2.64 0.66 4 1 C4 2.32 4 3.64 4 5 C2.824375 4.9690625 2.824375 4.9690625 1.625 4.9375 C-0.98114961 4.81315937 -0.98114961 4.81315937 -3 6 C-2 4 -1 2 0 0 Z " fill="#E65331" transform="translate(227,216)"/>
<path d="M0 0 C0.33 0.66 0.66 1.32 1 2 C1.66 2.33 2.32 2.66 3 3 C2.34 3 1.68 3 1 3 C0.67 3.99 0.34 4.98 0 6 C-0.38218767 4.34385343 -0.71395102 2.67542976 -1 1 C-0.67 0.67 -0.34 0.34 0 0 Z M-3 5 C-1.515 5.99 -1.515 5.99 0 7 C-0.66 7 -1.32 7 -2 7 C-2 8.65 -2 10.3 -2 12 C-2.33 12 -2.66 12 -3 12 C-3 9.69 -3 7.38 -3 5 Z " fill="#E96B39" transform="translate(161,162)"/>
<path d="M0 0 C0.66 1.32 1.32 2.64 2 4 C0.02 4.66 -1.96 5.32 -4 6 C-4 4.68 -4 3.36 -4 2 C-2.68 1.34 -1.36 0.68 0 0 Z " fill="#E9693E" transform="translate(230,46)"/>
<path d="M0 0 C4 4.625 4 4.625 4 8 C1.525 7.01 1.525 7.01 -1 6 C-0.67 4.02 -0.34 2.04 0 0 Z " fill="#E86637" transform="translate(392,86)"/>
<path d="M0 0 C1.875 0.1875 1.875 0.1875 4 1 C5.25 3.5625 5.25 3.5625 6 6 C4.02 5.01 2.04 4.02 0 3 C0 2.01 0 1.02 0 0 Z " fill="#E8683A" transform="translate(218,270)"/>
<path d="M0 0 C1.65 0.33 3.3 0.66 5 1 C5 1.99 5 2.98 5 4 C2.03 3.505 2.03 3.505 -1 3 C-0.67 2.01 -0.34 1.02 0 0 Z " fill="#E9693B" transform="translate(323,38)"/>
</svg>
